%TF.GenerationSoftware,KiCad,Pcbnew,9.0.6*%
%TF.CreationDate,2026-01-23T10:54:34+00:00*%
%TF.ProjectId,Inverter,496e7665-7274-4657-922e-6b696361645f,rev?*%
%TF.SameCoordinates,Original*%
%TF.FileFunction,Soldermask,Top*%
%TF.FilePolarity,Negative*%
%FSLAX46Y46*%
G04 Gerber Fmt 4.6, Leading zero omitted, Abs format (unit mm)*
G04 Created by KiCad (PCBNEW 9.0.6) date 2026-01-23 10:54:34*
%MOMM*%
%LPD*%
G01*
G04 APERTURE LIST*
G04 Aperture macros list*
%AMRoundRect*
0 Rectangle with rounded corners*
0 $1 Rounding radius*
0 $2 $3 $4 $5 $6 $7 $8 $9 X,Y pos of 4 corners*
0 Add a 4 corners polygon primitive as box body*
4,1,4,$2,$3,$4,$5,$6,$7,$8,$9,$2,$3,0*
0 Add four circle primitives for the rounded corners*
1,1,$1+$1,$2,$3*
1,1,$1+$1,$4,$5*
1,1,$1+$1,$6,$7*
1,1,$1+$1,$8,$9*
0 Add four rect primitives between the rounded corners*
20,1,$1+$1,$2,$3,$4,$5,0*
20,1,$1+$1,$4,$5,$6,$7,0*
20,1,$1+$1,$6,$7,$8,$9,0*
20,1,$1+$1,$8,$9,$2,$3,0*%
G04 Aperture macros list end*
%ADD10C,3.200000*%
%ADD11C,1.800000*%
%ADD12R,1.800000X1.800000*%
%ADD13RoundRect,0.250000X0.750000X-0.600000X0.750000X0.600000X-0.750000X0.600000X-0.750000X-0.600000X0*%
%ADD14O,2.000000X1.700000*%
%ADD15R,2.030000X1.730000*%
%ADD16O,2.030000X1.730000*%
%ADD17R,1.500000X1.500000*%
%ADD18C,1.500000*%
%ADD19C,1.600000*%
%ADD20RoundRect,0.250000X-0.550000X-0.550000X0.550000X-0.550000X0.550000X0.550000X-0.550000X0.550000X0*%
%ADD21R,2.400000X1.600000*%
%ADD22O,2.400000X1.600000*%
%ADD23C,1.440000*%
%ADD24RoundRect,0.250000X0.550000X0.550000X-0.550000X0.550000X-0.550000X-0.550000X0.550000X-0.550000X0*%
%ADD25RoundRect,0.250001X0.499999X-0.499999X0.499999X0.499999X-0.499999X0.499999X-0.499999X-0.499999X0*%
%ADD26RoundRect,0.250001X-0.499999X0.499999X-0.499999X-0.499999X0.499999X-0.499999X0.499999X0.499999X0*%
%ADD27C,2.000000*%
%ADD28C,2.400000*%
%ADD29RoundRect,0.250000X-1.750000X-1.750000X1.750000X-1.750000X1.750000X1.750000X-1.750000X1.750000X0*%
%ADD30C,4.000000*%
%ADD31R,2.000000X1.905000*%
%ADD32O,2.000000X1.905000*%
%ADD33R,1.600000X1.600000*%
%ADD34O,1.600000X1.600000*%
%ADD35C,1.803400*%
%ADD36RoundRect,0.250000X-0.550000X0.950000X-0.550000X-0.950000X0.550000X-0.950000X0.550000X0.950000X0*%
%ADD37O,1.600000X2.400000*%
%ADD38C,2.540000*%
%ADD39C,1.447800*%
%ADD40C,1.900000*%
G04 APERTURE END LIST*
D10*
%TO.C,H20*%
X266425000Y-177150000D03*
%TD*%
D11*
%TO.C,OSCIL4*%
X327876037Y-159915000D03*
X327876037Y-162455000D03*
D12*
X327876037Y-164995000D03*
%TD*%
D13*
%TO.C,SW2*%
X38956648Y-191256648D03*
D14*
X38956648Y-188756648D03*
%TD*%
D15*
%TO.C,M1*%
X39006648Y-201706648D03*
D16*
X39006648Y-199166648D03*
X39006648Y-196626648D03*
%TD*%
D17*
%TO.C,Q11*%
X271605000Y-160222443D03*
D18*
X269065000Y-160222443D03*
X266525000Y-160222443D03*
%TD*%
%TO.C,Q12*%
X282495000Y-160247443D03*
X285035000Y-160247443D03*
D17*
X287575000Y-160247443D03*
%TD*%
D18*
%TO.C,Q13*%
X297550000Y-160222443D03*
X300090000Y-160222443D03*
D17*
X302630000Y-160222443D03*
%TD*%
D19*
%TO.C,C48*%
X271044888Y-165847443D03*
D20*
X269044888Y-165847443D03*
%TD*%
D21*
%TO.C,URep6*%
X311405000Y-132500000D03*
D22*
X311405000Y-135040000D03*
X311405000Y-137580000D03*
X311405000Y-140120000D03*
X319025000Y-140120000D03*
X319025000Y-137580000D03*
X319025000Y-135040000D03*
X319025000Y-132500000D03*
%TD*%
D21*
%TO.C,URep5*%
X290630000Y-132525000D03*
D22*
X290630000Y-135065000D03*
X290630000Y-137605000D03*
X290630000Y-140145000D03*
X298250000Y-140145000D03*
X298250000Y-137605000D03*
X298250000Y-135065000D03*
X298250000Y-132525000D03*
%TD*%
D21*
%TO.C,URep4*%
X269905000Y-132525000D03*
D22*
X269905000Y-135065000D03*
X269905000Y-137605000D03*
X269905000Y-140145000D03*
X277525000Y-140145000D03*
X277525000Y-137605000D03*
X277525000Y-135065000D03*
X277525000Y-132525000D03*
%TD*%
D23*
%TO.C,RVRep2*%
X291720000Y-116225000D03*
X294260000Y-116225000D03*
X296800000Y-116225000D03*
%TD*%
%TO.C,RVAmp6*%
X312425000Y-125095000D03*
X314965000Y-125095000D03*
X317505000Y-125095000D03*
%TD*%
%TO.C,RVAmp5*%
X291650000Y-125120000D03*
X294190000Y-125120000D03*
X296730000Y-125120000D03*
%TD*%
%TO.C,RVAmp4*%
X270925000Y-125120000D03*
X273465000Y-125120000D03*
X276005000Y-125120000D03*
%TD*%
D19*
%TO.C,RRep6*%
X321175000Y-129370000D03*
X311015000Y-129370000D03*
%TD*%
%TO.C,RRep5*%
X300400000Y-129395000D03*
X290240000Y-129395000D03*
%TD*%
%TO.C,RRep4*%
X279675000Y-129395000D03*
X269515000Y-129395000D03*
%TD*%
%TO.C,REq6*%
X323471037Y-158925000D03*
X313311037Y-158925000D03*
%TD*%
%TO.C,REq5*%
X323471037Y-164925000D03*
X313311037Y-164925000D03*
%TD*%
%TO.C,REq4*%
X323471037Y-170415000D03*
X313311037Y-170415000D03*
%TD*%
%TO.C,RAmp6*%
X311000000Y-143350000D03*
X321160000Y-143350000D03*
%TD*%
%TO.C,RAmp5*%
X290225000Y-143375000D03*
X300385000Y-143375000D03*
%TD*%
%TO.C,RAmp4*%
X269500000Y-143375000D03*
X279660000Y-143375000D03*
%TD*%
%TO.C,R28*%
X224121000Y-160071000D03*
X224121000Y-170231000D03*
%TD*%
%TO.C,R27*%
X212521000Y-154771000D03*
X222681000Y-154771000D03*
%TD*%
%TO.C,R26*%
X209071000Y-160021000D03*
X209071000Y-170181000D03*
%TD*%
%TO.C,R25*%
X196521000Y-154721000D03*
X206681000Y-154721000D03*
%TD*%
%TO.C,R24*%
X193071000Y-160046000D03*
X193071000Y-170206000D03*
%TD*%
%TO.C,R23*%
X227536000Y-154746000D03*
X237696000Y-154746000D03*
%TD*%
%TO.C,R19*%
X309625000Y-160290000D03*
X309625000Y-170450000D03*
%TD*%
%TO.C,R18*%
X291200000Y-160195000D03*
X291200000Y-170355000D03*
%TD*%
%TO.C,R15*%
X294525000Y-160165000D03*
X294525000Y-170325000D03*
%TD*%
%TO.C,R10*%
X276300000Y-160120000D03*
X276300000Y-170280000D03*
%TD*%
%TO.C,R7*%
X279600000Y-160075000D03*
X279600000Y-170235000D03*
%TD*%
%TO.C,R2*%
X306300000Y-160295000D03*
X306300000Y-170455000D03*
%TD*%
D17*
%TO.C,Q16*%
X232601000Y-160071000D03*
D18*
X230061000Y-160071000D03*
X227521000Y-160071000D03*
%TD*%
D17*
%TO.C,Q15*%
X217546000Y-160096000D03*
D18*
X215006000Y-160096000D03*
X212466000Y-160096000D03*
%TD*%
D17*
%TO.C,Q14*%
X201576000Y-160071000D03*
D18*
X199036000Y-160071000D03*
X196496000Y-160071000D03*
%TD*%
D12*
%TO.C,OSCIL6*%
X327926037Y-129040000D03*
D11*
X327926037Y-126500000D03*
X327926037Y-123960000D03*
%TD*%
D12*
%TO.C,OSCIL5*%
X327901037Y-146820000D03*
D11*
X327901037Y-144280000D03*
X327901037Y-141740000D03*
%TD*%
D10*
%TO.C,H19*%
X266225000Y-114575000D03*
%TD*%
%TO.C,H18*%
X326891037Y-176725000D03*
%TD*%
%TO.C,H17*%
X326891037Y-114525000D03*
%TD*%
D24*
%TO.C,CRep6*%
X312030113Y-149100000D03*
D19*
X309530113Y-149100000D03*
%TD*%
D24*
%TO.C,CRep5*%
X296675000Y-149075000D03*
D19*
X294175000Y-149075000D03*
%TD*%
D24*
%TO.C,CRep4*%
X280700000Y-149100000D03*
D19*
X278200000Y-149100000D03*
%TD*%
D20*
%TO.C,C111*%
X199015888Y-165696000D03*
D19*
X201015888Y-165696000D03*
%TD*%
%TO.C,C100*%
X196496000Y-146471000D03*
X196496000Y-151471000D03*
%TD*%
%TO.C,C59*%
X307350000Y-140125000D03*
X307350000Y-135125000D03*
%TD*%
%TO.C,C58*%
X286650000Y-140175000D03*
X286650000Y-135175000D03*
%TD*%
%TO.C,C57*%
X265825000Y-140125000D03*
X265825000Y-135125000D03*
%TD*%
%TO.C,C56*%
X323100000Y-135150000D03*
X323100000Y-140150000D03*
%TD*%
%TO.C,C55*%
X302325000Y-135175000D03*
X302325000Y-140175000D03*
%TD*%
%TO.C,C54*%
X281575000Y-135175000D03*
X281575000Y-140175000D03*
%TD*%
%TO.C,C52*%
X302050000Y-165847443D03*
D20*
X300050000Y-165847443D03*
%TD*%
D19*
%TO.C,C50*%
X287000000Y-165872443D03*
D20*
X285000000Y-165872443D03*
%TD*%
D19*
%TO.C,C45*%
X227546000Y-146571000D03*
X227546000Y-151571000D03*
%TD*%
%TO.C,C44*%
X212521000Y-146496000D03*
X212521000Y-151496000D03*
%TD*%
D20*
%TO.C,C11*%
X230021000Y-165696000D03*
D19*
X232021000Y-165696000D03*
%TD*%
D20*
%TO.C,C9*%
X214971000Y-165721000D03*
D19*
X216971000Y-165721000D03*
%TD*%
%TO.C,C5*%
X93175000Y-35200000D03*
X93175000Y-40200000D03*
%TD*%
D18*
%TO.C,DZ1*%
X96725000Y-32670000D03*
D25*
X96725000Y-42830000D03*
%TD*%
D26*
%TO.C,DZ11*%
X216585194Y-17547233D03*
D18*
X216585194Y-27707233D03*
%TD*%
D19*
%TO.C,C47*%
X220135194Y-20127233D03*
X220135194Y-25127233D03*
%TD*%
%TO.C,C43*%
X301943620Y-81011573D03*
X301943620Y-86011573D03*
%TD*%
D26*
%TO.C,DZ10*%
X298393620Y-78431573D03*
D18*
X298393620Y-88591573D03*
%TD*%
D19*
%TO.C,C10*%
X119500000Y-35370000D03*
X119500000Y-40370000D03*
%TD*%
%TO.C,C12*%
X119350000Y-83870000D03*
X119350000Y-78870000D03*
%TD*%
%TO.C,C37*%
X93175000Y-83774000D03*
X93175000Y-78774000D03*
%TD*%
D26*
%TO.C,DZ2*%
X123050000Y-32790000D03*
D18*
X123050000Y-42950000D03*
%TD*%
D25*
%TO.C,DZ3*%
X122900000Y-86450000D03*
D18*
X122900000Y-76290000D03*
%TD*%
D25*
%TO.C,DZ4*%
X96725000Y-86354000D03*
D18*
X96725000Y-76194000D03*
%TD*%
D26*
%TO.C,DZ9*%
X298218620Y-35231573D03*
D18*
X298218620Y-45391573D03*
%TD*%
D26*
%TO.C,DZ6*%
X245043620Y-78306573D03*
D18*
X245043620Y-88466573D03*
%TD*%
D26*
%TO.C,DZ5*%
X245118620Y-34981573D03*
D18*
X245118620Y-45141573D03*
%TD*%
D26*
%TO.C,DZ8*%
X272093620Y-35131573D03*
D18*
X272093620Y-45291573D03*
%TD*%
D26*
%TO.C,DZ7*%
X272093620Y-78306573D03*
D18*
X272093620Y-88466573D03*
%TD*%
D19*
%TO.C,C39*%
X248593620Y-85886573D03*
X248593620Y-80886573D03*
%TD*%
%TO.C,C38*%
X248668620Y-42561573D03*
X248668620Y-37561573D03*
%TD*%
%TO.C,C40*%
X275643620Y-85886573D03*
X275643620Y-80886573D03*
%TD*%
D27*
%TO.C,TRIF_SOURCE1*%
X46831648Y-121956648D03*
X46831648Y-113756649D03*
X41831648Y-121956648D03*
X41831648Y-113756649D03*
%TD*%
%TO.C,DC_SOURCE1*%
X64800001Y-100925000D03*
X73000000Y-100925000D03*
X64800001Y-95925000D03*
X73000000Y-95925000D03*
%TD*%
%TO.C,DAISY_CHAIN1*%
X61106648Y-121806648D03*
X61106648Y-113606649D03*
X56106648Y-121806648D03*
X56106648Y-113606649D03*
%TD*%
D28*
%TO.C,R_Back1*%
X178890000Y-23275000D03*
X189050000Y-23275000D03*
%TD*%
D19*
%TO.C,C42*%
X301768620Y-37811573D03*
X301768620Y-42811573D03*
%TD*%
%TO.C,C41*%
X275643620Y-37711573D03*
X275643620Y-42711573D03*
%TD*%
%TO.C,C36*%
X78231648Y-121356648D03*
X83231648Y-121356648D03*
%TD*%
%TO.C,C35*%
X85456648Y-148981648D03*
X90456648Y-148981648D03*
%TD*%
%TO.C,C34*%
X79381648Y-177256648D03*
X84381648Y-177256648D03*
%TD*%
%TO.C,C23*%
X91281648Y-141281648D03*
X86281648Y-141281648D03*
%TD*%
%TO.C,C13*%
X98531648Y-168756648D03*
X93531648Y-168756648D03*
%TD*%
%TO.C,C4*%
X92856648Y-196931648D03*
X87856648Y-196931648D03*
%TD*%
D10*
%TO.C,H1*%
X3475000Y-3475000D03*
%TD*%
%TO.C,H2*%
X31950000Y-19150000D03*
%TD*%
%TO.C,H3*%
X158850000Y-19350000D03*
%TD*%
%TO.C,H4*%
X32075000Y-100725000D03*
%TD*%
%TO.C,H5*%
X3475000Y-11425000D03*
%TD*%
%TO.C,H6*%
X368241225Y-19819415D03*
%TD*%
%TO.C,H7*%
X168666225Y-19719415D03*
%TD*%
%TO.C,H8*%
X168650000Y-104600000D03*
%TD*%
%TO.C,H9*%
X189321000Y-114396000D03*
%TD*%
%TO.C,H10*%
X189571000Y-176946000D03*
%TD*%
%TO.C,H11*%
X249987037Y-176546000D03*
%TD*%
%TO.C,H12*%
X249987037Y-114346000D03*
%TD*%
%TO.C,H13*%
X31621648Y-113281648D03*
%TD*%
%TO.C,H14*%
X31621648Y-208081648D03*
%TD*%
%TO.C,H15*%
X176686648Y-207886648D03*
%TD*%
%TO.C,H16*%
X176886648Y-113086648D03*
%TD*%
D19*
%TO.C,R33*%
X76906648Y-128156648D03*
X76906648Y-138316648D03*
%TD*%
%TO.C,R14*%
X84056648Y-155701648D03*
X84056648Y-165861648D03*
%TD*%
%TO.C,R6*%
X78066648Y-184081648D03*
X78066648Y-194241648D03*
%TD*%
D27*
%TO.C,W1*%
X213625001Y-53975001D03*
X221825000Y-53975001D03*
X213625001Y-48975001D03*
X221825000Y-48975001D03*
X213625001Y-43975000D03*
X221825000Y-43975000D03*
X213625001Y-38975000D03*
X221825000Y-38975000D03*
%TD*%
D19*
%TO.C,C19*%
X131186648Y-136586648D03*
X133686648Y-136586648D03*
%TD*%
%TO.C,C16*%
X133786648Y-126786648D03*
X131286648Y-126786648D03*
%TD*%
%TO.C,C15*%
X131081648Y-167586648D03*
X133581648Y-167586648D03*
%TD*%
%TO.C,C8*%
X133446648Y-158086648D03*
X130946648Y-158086648D03*
%TD*%
%TO.C,C7*%
X133586648Y-200646648D03*
X131086648Y-200646648D03*
%TD*%
%TO.C,C3*%
X133576648Y-190866648D03*
X131076648Y-190866648D03*
%TD*%
%TO.C,R_G3*%
X141131648Y-155186648D03*
X130971648Y-155186648D03*
%TD*%
%TO.C,C33*%
X87356648Y-121081648D03*
X87356648Y-126081648D03*
%TD*%
%TO.C,C32*%
X94506648Y-148931648D03*
X94506648Y-153931648D03*
%TD*%
%TO.C,C31*%
X88666648Y-177106648D03*
X88666648Y-182106648D03*
%TD*%
%TO.C,C26*%
X98561648Y-135781648D03*
X98561648Y-130781648D03*
%TD*%
%TO.C,C25*%
X105721648Y-158401648D03*
X105721648Y-163401648D03*
%TD*%
%TO.C,C24*%
X99881648Y-186536648D03*
X99881648Y-191536648D03*
%TD*%
%TO.C,C18*%
X62721648Y-132681648D03*
X67721648Y-132681648D03*
%TD*%
%TO.C,C14*%
X63036648Y-153581648D03*
X68036648Y-153581648D03*
%TD*%
%TO.C,C6*%
X62616648Y-174481648D03*
X67616648Y-174481648D03*
%TD*%
%TO.C,C30*%
X188946000Y-139946000D03*
X188946000Y-134946000D03*
%TD*%
%TO.C,C29*%
X209671000Y-139966000D03*
X209671000Y-134966000D03*
%TD*%
%TO.C,C28*%
X230446000Y-134941000D03*
X230446000Y-139941000D03*
%TD*%
%TO.C,C27*%
X204671000Y-134996000D03*
X204671000Y-139996000D03*
%TD*%
%TO.C,C22*%
X225396000Y-134996000D03*
X225396000Y-139996000D03*
%TD*%
%TO.C,C17*%
X246171000Y-134971000D03*
X246171000Y-139971000D03*
%TD*%
D12*
%TO.C,TRIF_CMD1*%
X30206648Y-142241648D03*
D11*
X30206648Y-144781648D03*
X30206648Y-147321648D03*
%TD*%
%TO.C,OSCIL1*%
X250997037Y-141561000D03*
X250997037Y-144101000D03*
D12*
X250997037Y-146641000D03*
%TD*%
D23*
%TO.C,RVRep1*%
X219896000Y-116046000D03*
X217356000Y-116046000D03*
X214816000Y-116046000D03*
%TD*%
%TO.C,RVAmp3*%
X194021000Y-124941000D03*
X196561000Y-124941000D03*
X199101000Y-124941000D03*
%TD*%
%TO.C,RVAmp2*%
X214746000Y-124941000D03*
X217286000Y-124941000D03*
X219826000Y-124941000D03*
%TD*%
%TO.C,RVAmp1*%
X235521000Y-124916000D03*
X238061000Y-124916000D03*
X240601000Y-124916000D03*
%TD*%
D21*
%TO.C,URep3*%
X234501000Y-132321000D03*
D22*
X234501000Y-134861000D03*
X234501000Y-137401000D03*
X234501000Y-139941000D03*
X242121000Y-139941000D03*
X242121000Y-137401000D03*
X242121000Y-134861000D03*
X242121000Y-132321000D03*
%TD*%
D21*
%TO.C,URep2*%
X213726000Y-132346000D03*
D22*
X213726000Y-134886000D03*
X213726000Y-137426000D03*
X213726000Y-139966000D03*
X221346000Y-139966000D03*
X221346000Y-137426000D03*
X221346000Y-134886000D03*
X221346000Y-132346000D03*
%TD*%
D21*
%TO.C,URep1*%
X193001000Y-132346000D03*
D22*
X193001000Y-134886000D03*
X193001000Y-137426000D03*
X193001000Y-139966000D03*
X200621000Y-139966000D03*
X200621000Y-137426000D03*
X200621000Y-134886000D03*
X200621000Y-132346000D03*
%TD*%
D25*
%TO.C,U12*%
X70406648Y-112474148D03*
D18*
X72946648Y-112474148D03*
X80566648Y-112474148D03*
X85646648Y-112474148D03*
%TD*%
D12*
%TO.C,TRIF_CMD3*%
X29856648Y-160356648D03*
D11*
X29856648Y-162896648D03*
X29856648Y-165436648D03*
%TD*%
D12*
%TO.C,TRIF_CMD2*%
X30181648Y-124441648D03*
D11*
X30181648Y-126981648D03*
X30181648Y-129521648D03*
%TD*%
D19*
%TO.C,RRep3*%
X244271000Y-129191000D03*
X234111000Y-129191000D03*
%TD*%
%TO.C,RRep2*%
X223496000Y-129216000D03*
X213336000Y-129216000D03*
%TD*%
%TO.C,RRep1*%
X202771000Y-129216000D03*
X192611000Y-129216000D03*
%TD*%
%TO.C,RAmp3*%
X234096000Y-143171000D03*
X244256000Y-143171000D03*
%TD*%
%TO.C,RAmp2*%
X192596000Y-143196000D03*
X202756000Y-143196000D03*
%TD*%
%TO.C,RAmp1*%
X213321000Y-143196000D03*
X223481000Y-143196000D03*
%TD*%
D12*
%TO.C,OSCIL3*%
X250972037Y-164816000D03*
D11*
X250972037Y-162276000D03*
X250972037Y-159736000D03*
%TD*%
D12*
%TO.C,OSCIL2*%
X251022037Y-128861000D03*
D11*
X251022037Y-126321000D03*
X251022037Y-123781000D03*
%TD*%
D24*
%TO.C,CRep3*%
X235126113Y-148921000D03*
D19*
X232626113Y-148921000D03*
%TD*%
D24*
%TO.C,CRep2*%
X203796000Y-148921000D03*
D19*
X201296000Y-148921000D03*
%TD*%
D24*
%TO.C,CRep1*%
X219771000Y-148896000D03*
D19*
X217271000Y-148896000D03*
%TD*%
D29*
%TO.C,C_Bank1*%
X183100000Y-63825000D03*
D30*
X193100000Y-63825000D03*
%TD*%
D27*
%TO.C,J7*%
X169186647Y-147900999D03*
X160986648Y-147900999D03*
X169186647Y-152900999D03*
X160986648Y-152900999D03*
X169186647Y-157901000D03*
X160986648Y-157901000D03*
X169186647Y-162901000D03*
X160986648Y-162901000D03*
X169186648Y-167896099D03*
X160986649Y-167896099D03*
X169186648Y-172896099D03*
X160986649Y-172896099D03*
X169186648Y-177896099D03*
X160986649Y-177896099D03*
X169186646Y-182891549D03*
X160986647Y-182891549D03*
X169186647Y-187886648D03*
X160986648Y-187886648D03*
X169186647Y-192886648D03*
X160986648Y-192886648D03*
X169186647Y-197886648D03*
X160986648Y-197886648D03*
%TD*%
D19*
%TO.C,R_GS2*%
X141286648Y-206666648D03*
X131126648Y-206666648D03*
%TD*%
D12*
%TO.C,D2*%
X117196648Y-202361648D03*
D11*
X114656648Y-202361648D03*
%TD*%
D19*
%TO.C,R_G1*%
X141286648Y-187966648D03*
X131126648Y-187966648D03*
%TD*%
%TO.C,R_G4*%
X141111648Y-172686648D03*
X130951648Y-172686648D03*
%TD*%
%TO.C,R39*%
X175996648Y-124226648D03*
X165836648Y-124226648D03*
%TD*%
%TO.C,R9*%
X175996648Y-127331648D03*
X165836648Y-127331648D03*
%TD*%
%TO.C,R16*%
X111021648Y-171311648D03*
X111021648Y-161151648D03*
%TD*%
%TO.C,R_GS3*%
X146931648Y-158286648D03*
X136771648Y-158286648D03*
%TD*%
D27*
%TO.C,J5*%
X153699999Y-68804900D03*
X145500000Y-68804900D03*
X153699999Y-73804900D03*
X145500000Y-73804900D03*
X153699999Y-78804901D03*
X145500000Y-78804901D03*
X153699999Y-83804901D03*
X145500000Y-83804901D03*
X153700000Y-88800000D03*
X145500001Y-88800000D03*
X153700000Y-93800000D03*
X145500001Y-93800000D03*
X153700000Y-98800000D03*
X145500001Y-98800000D03*
%TD*%
D19*
%TO.C,CT2*%
X60166648Y-189181648D03*
X62666648Y-189181648D03*
%TD*%
D17*
%TO.C,Q18*%
X163656648Y-123026648D03*
D18*
X161116648Y-123026648D03*
X158576648Y-123026648D03*
%TD*%
D12*
%TO.C,D6*%
X117196648Y-138436648D03*
D11*
X114656648Y-138436648D03*
%TD*%
D19*
%TO.C,R_GS4*%
X141131648Y-175786648D03*
X130971648Y-175786648D03*
%TD*%
D31*
%TO.C,Q10*%
X130000000Y-83946000D03*
D32*
X135080000Y-81409500D03*
X130000000Y-78866000D03*
%TD*%
D19*
%TO.C,R41*%
X176006648Y-130431648D03*
X165846648Y-130431648D03*
%TD*%
D32*
%TO.C,Q4*%
X265167975Y-86009415D03*
X260087975Y-83465915D03*
D31*
X265167975Y-80929415D03*
%TD*%
D19*
%TO.C,R_G6*%
X141336648Y-141186648D03*
X131176648Y-141186648D03*
%TD*%
D25*
%TO.C,U7*%
X118296648Y-129486648D03*
D18*
X120836648Y-129486648D03*
X128456648Y-129486648D03*
X133536648Y-129486648D03*
%TD*%
D27*
%TO.C,J4*%
X351925000Y-67000000D03*
X360124999Y-67000000D03*
X351925000Y-62000000D03*
X360124999Y-62000000D03*
X351925000Y-57000000D03*
X360124999Y-57000000D03*
%TD*%
D21*
%TO.C,OC4*%
X120711648Y-167586648D03*
D22*
X120711648Y-170126648D03*
X120711648Y-172666648D03*
X120711648Y-175206648D03*
X128331648Y-175206648D03*
X128331648Y-172666648D03*
X128331648Y-170126648D03*
X128331648Y-167586648D03*
%TD*%
D33*
%TO.C,U5*%
X52541648Y-144381648D03*
D34*
X55081648Y-144381648D03*
X57621648Y-144381648D03*
X60161648Y-144381648D03*
X62701648Y-144381648D03*
X65241648Y-144381648D03*
X67781648Y-144381648D03*
X70321648Y-144381648D03*
X70321648Y-136761648D03*
X67781648Y-136761648D03*
X65241648Y-136761648D03*
X62701648Y-136761648D03*
X60161648Y-136761648D03*
X57621648Y-136761648D03*
X55081648Y-136761648D03*
X52541648Y-136761648D03*
%TD*%
D31*
%TO.C,Q9*%
X103600000Y-83750000D03*
D32*
X108680000Y-81213500D03*
X103600000Y-78670000D03*
%TD*%
D19*
%TO.C,CT1*%
X60261648Y-147261648D03*
X62761648Y-147261648D03*
%TD*%
%TO.C,CT3*%
X60436648Y-168281648D03*
X62936648Y-168281648D03*
%TD*%
%TO.C,R32*%
X83261648Y-128121648D03*
X83261648Y-138281648D03*
%TD*%
%TO.C,RT1*%
X75461648Y-147561648D03*
X65301648Y-147561648D03*
%TD*%
%TO.C,R47*%
X87221648Y-165861648D03*
X87221648Y-155701648D03*
%TD*%
%TO.C,R46*%
X81181648Y-194216648D03*
X81181648Y-184056648D03*
%TD*%
D12*
%TO.C,D3*%
X117121648Y-151811648D03*
D11*
X114581648Y-151811648D03*
%TD*%
D19*
%TO.C,RT3*%
X75616648Y-168481648D03*
X65456648Y-168481648D03*
%TD*%
D12*
%TO.C,D5*%
X117221648Y-120436648D03*
D11*
X114681648Y-120436648D03*
%TD*%
D25*
%TO.C,U4*%
X118336648Y-193684148D03*
D18*
X120876648Y-193684148D03*
X128496648Y-193684148D03*
X133576648Y-193684148D03*
%TD*%
D28*
%TO.C,C_Bank_PWM1*%
X212725000Y-76475000D03*
X212725000Y-103975000D03*
%TD*%
D32*
%TO.C,Q5*%
X291367975Y-42929415D03*
X286287975Y-40385915D03*
D31*
X291367975Y-37849415D03*
%TD*%
D19*
%TO.C,R31*%
X90421648Y-155701648D03*
X90421648Y-165861648D03*
%TD*%
%TO.C,R42*%
X176016648Y-136591648D03*
X165856648Y-136591648D03*
%TD*%
D27*
%TO.C,J2*%
X181900000Y-99249999D03*
X181900000Y-91050000D03*
X176900000Y-99249999D03*
X176900000Y-91050000D03*
%TD*%
D21*
%TO.C,OC1*%
X120866648Y-183246648D03*
D22*
X120866648Y-185786648D03*
X120866648Y-188326648D03*
X120866648Y-190866648D03*
X128486648Y-190866648D03*
X128486648Y-188326648D03*
X128486648Y-185786648D03*
X128486648Y-183246648D03*
%TD*%
D19*
%TO.C,R44*%
X90411648Y-168511648D03*
X80251648Y-168511648D03*
%TD*%
%TO.C,R3*%
X111046648Y-187036648D03*
X111046648Y-176876648D03*
%TD*%
%TO.C,R5*%
X80261648Y-153011648D03*
X90421648Y-153011648D03*
%TD*%
D35*
%TO.C,PS1*%
X80375002Y-42149994D03*
X59575003Y-42149994D03*
X67575002Y-87150006D03*
X59575003Y-87150006D03*
%TD*%
D19*
%TO.C,R_GS5*%
X148536648Y-127086648D03*
X138376648Y-127086648D03*
%TD*%
%TO.C,R11*%
X111021648Y-153936648D03*
X111021648Y-143776648D03*
%TD*%
%TO.C,R45*%
X83261648Y-140981648D03*
X73101648Y-140981648D03*
%TD*%
D17*
%TO.C,Q20*%
X163671648Y-135336648D03*
D18*
X161131648Y-135336648D03*
X158591648Y-135336648D03*
%TD*%
D19*
%TO.C,REq3*%
X246567037Y-158746000D03*
X236407037Y-158746000D03*
%TD*%
%TO.C,R40*%
X158576648Y-118081648D03*
X168736648Y-118081648D03*
%TD*%
D25*
%TO.C,U6*%
X118171648Y-160586648D03*
D18*
X120711648Y-160586648D03*
X128331648Y-160586648D03*
X133411648Y-160586648D03*
%TD*%
D19*
%TO.C,R_G5*%
X141436648Y-123886648D03*
X131276648Y-123886648D03*
%TD*%
D21*
%TO.C,OC6*%
X120811648Y-136786648D03*
D22*
X120811648Y-139326648D03*
X120811648Y-141866648D03*
X120811648Y-144406648D03*
X128431648Y-144406648D03*
X128431648Y-141866648D03*
X128431648Y-139326648D03*
X128431648Y-136786648D03*
%TD*%
D19*
%TO.C,REq2*%
X246567037Y-164746000D03*
X236407037Y-164746000D03*
%TD*%
D27*
%TO.C,F1*%
X68996001Y-25500001D03*
X68996001Y-33700000D03*
X73996001Y-25500001D03*
X73996001Y-33700000D03*
%TD*%
D33*
%TO.C,U3*%
X52816648Y-165401648D03*
D34*
X55356648Y-165401648D03*
X57896648Y-165401648D03*
X60436648Y-165401648D03*
X62976648Y-165401648D03*
X65516648Y-165401648D03*
X68056648Y-165401648D03*
X70596648Y-165401648D03*
X70596648Y-157781648D03*
X68056648Y-157781648D03*
X65516648Y-157781648D03*
X62976648Y-157781648D03*
X60436648Y-157781648D03*
X57896648Y-157781648D03*
X55356648Y-157781648D03*
X52816648Y-157781648D03*
%TD*%
D27*
%TO.C,J6*%
X314939352Y-91100000D03*
X314939352Y-99299999D03*
X319939352Y-91100000D03*
X319939352Y-99299999D03*
X324939352Y-91100000D03*
X324939352Y-99299999D03*
X329934451Y-91099999D03*
X329934451Y-99299998D03*
X334929901Y-91100001D03*
X334929901Y-99300000D03*
X339929901Y-91100001D03*
X339929901Y-99300000D03*
X344929901Y-91100001D03*
X344929901Y-99300000D03*
X349925000Y-91100000D03*
X349925000Y-99299999D03*
X354925000Y-91100000D03*
X354925000Y-99299999D03*
X359925001Y-91100000D03*
X359925001Y-99299999D03*
X364925001Y-91100000D03*
X364925001Y-99299999D03*
%TD*%
D21*
%TO.C,OC2*%
X120866648Y-200646648D03*
D22*
X120866648Y-203186648D03*
X120866648Y-205726648D03*
X120866648Y-208266648D03*
X128486648Y-208266648D03*
X128486648Y-205726648D03*
X128486648Y-203186648D03*
X128486648Y-200646648D03*
%TD*%
D33*
%TO.C,U2*%
X52441648Y-186381648D03*
D34*
X54981648Y-186381648D03*
X57521648Y-186381648D03*
X60061648Y-186381648D03*
X62601648Y-186381648D03*
X65141648Y-186381648D03*
X67681648Y-186381648D03*
X70221648Y-186381648D03*
X70221648Y-178761648D03*
X67681648Y-178761648D03*
X65141648Y-178761648D03*
X62601648Y-178761648D03*
X60061648Y-178761648D03*
X57521648Y-178761648D03*
X54981648Y-178761648D03*
X52441648Y-178761648D03*
%TD*%
D36*
%TO.C,U9*%
X95381648Y-185236648D03*
D37*
X92841648Y-185236648D03*
X90301648Y-185236648D03*
X87761648Y-185236648D03*
X87761648Y-192856648D03*
X90301648Y-192856648D03*
X92841648Y-192856648D03*
X95381648Y-192856648D03*
%TD*%
D19*
%TO.C,R1*%
X176006648Y-121131648D03*
X165846648Y-121131648D03*
%TD*%
D12*
%TO.C,D4*%
X117196648Y-169236648D03*
D11*
X114656648Y-169236648D03*
%TD*%
D19*
%TO.C,R29*%
X237516000Y-151671000D03*
X247676000Y-151671000D03*
%TD*%
%TO.C,R8*%
X111021648Y-204661648D03*
X111021648Y-194501648D03*
%TD*%
%TO.C,R35*%
X111046648Y-140586648D03*
X111046648Y-130426648D03*
%TD*%
D36*
%TO.C,U10*%
X101221648Y-157101648D03*
D37*
X98681648Y-157101648D03*
X96141648Y-157101648D03*
X93601648Y-157101648D03*
X93601648Y-164721648D03*
X96141648Y-164721648D03*
X98681648Y-164721648D03*
X101221648Y-164721648D03*
%TD*%
D31*
%TO.C,Q8*%
X130100000Y-40350000D03*
D32*
X135180000Y-37813500D03*
X130100000Y-35270000D03*
%TD*%
D19*
%TO.C,R13*%
X84381648Y-184056648D03*
X84381648Y-194216648D03*
%TD*%
D25*
%TO.C,U1*%
X118296648Y-110986648D03*
D18*
X120836648Y-110986648D03*
X128456648Y-110986648D03*
X133536648Y-110986648D03*
%TD*%
D32*
%TO.C,Q6*%
X291467975Y-86109415D03*
X286387975Y-83565915D03*
D31*
X291467975Y-81029415D03*
%TD*%
D32*
%TO.C,Q3*%
X265167975Y-42829415D03*
X260087975Y-40285915D03*
D31*
X265167975Y-37749415D03*
%TD*%
D27*
%TO.C,TR1*%
X40599999Y-25150001D03*
X40599999Y-33350000D03*
X45599999Y-25150001D03*
X45599999Y-33350000D03*
X50600000Y-25150001D03*
X50600000Y-33350000D03*
X55600000Y-25150001D03*
X55600000Y-33350000D03*
%TD*%
D38*
%TO.C,FL2*%
X315075000Y-81900000D03*
X340075000Y-81900000D03*
X315075000Y-61900000D03*
X340075000Y-61900000D03*
X315075000Y-41900000D03*
X340075000Y-41900000D03*
%TD*%
D31*
%TO.C,Q7*%
X103800000Y-40254000D03*
D32*
X108880000Y-37717500D03*
X103800000Y-35174000D03*
%TD*%
%TO.C,Q2*%
X238167975Y-86009415D03*
X233087975Y-83465915D03*
D31*
X238167975Y-80929415D03*
%TD*%
D19*
%TO.C,REq1*%
X246567037Y-170236000D03*
X236407037Y-170236000D03*
%TD*%
%TO.C,R_G2*%
X141286648Y-203566648D03*
X131126648Y-203566648D03*
%TD*%
%TO.C,R43*%
X84381648Y-196956648D03*
X74221648Y-196956648D03*
%TD*%
%TO.C,R_GS1*%
X147966648Y-190966648D03*
X137806648Y-190966648D03*
%TD*%
%TO.C,R_GS6*%
X141336648Y-144386648D03*
X131176648Y-144386648D03*
%TD*%
D31*
%TO.C,Q17*%
X205605000Y-19513500D03*
D32*
X200525000Y-22050000D03*
X205605000Y-24593500D03*
%TD*%
D19*
%TO.C,R12*%
X73121648Y-125431648D03*
X83281648Y-125431648D03*
%TD*%
D21*
%TO.C,OC3*%
X120711648Y-150166648D03*
D22*
X120711648Y-152706648D03*
X120711648Y-155246648D03*
X120711648Y-157786648D03*
X128331648Y-157786648D03*
X128331648Y-155246648D03*
X128331648Y-152706648D03*
X128331648Y-150166648D03*
%TD*%
D32*
%TO.C,Q1*%
X238167975Y-42709415D03*
X233087975Y-40165915D03*
D31*
X238167975Y-37629415D03*
%TD*%
D19*
%TO.C,R48*%
X80021648Y-138281648D03*
X80021648Y-128121648D03*
%TD*%
D12*
%TO.C,D1*%
X117296648Y-184936648D03*
D11*
X114756648Y-184936648D03*
%TD*%
D27*
%TO.C,J1*%
X46700000Y-94600000D03*
X46700000Y-86400001D03*
X41700000Y-94600000D03*
X41700000Y-86400001D03*
%TD*%
D39*
%TO.C,FL1*%
X39900000Y-63100000D03*
X47400000Y-63100000D03*
X47400000Y-52399999D03*
X39900000Y-52399999D03*
%TD*%
D19*
%TO.C,RT2*%
X75276648Y-189381648D03*
X65116648Y-189381648D03*
%TD*%
%TO.C,R17*%
X176016648Y-133536648D03*
X165856648Y-133536648D03*
%TD*%
D36*
%TO.C,U11*%
X94061648Y-129461648D03*
D37*
X91521648Y-129461648D03*
X88981648Y-129461648D03*
X86441648Y-129461648D03*
X86441648Y-137081648D03*
X88981648Y-137081648D03*
X91521648Y-137081648D03*
X94061648Y-137081648D03*
%TD*%
D27*
%TO.C,J3*%
X153800000Y-53550000D03*
X145600001Y-53550000D03*
X153800000Y-58550000D03*
X145600001Y-58550000D03*
%TD*%
D17*
%TO.C,Q19*%
X163671648Y-129236648D03*
D18*
X161131648Y-129236648D03*
X158591648Y-129236648D03*
%TD*%
D19*
%TO.C,R4*%
X74221648Y-181356648D03*
X84381648Y-181356648D03*
%TD*%
D21*
%TO.C,OC5*%
X120811648Y-118786648D03*
D22*
X120811648Y-121326648D03*
X120811648Y-123866648D03*
X120811648Y-126406648D03*
X128431648Y-126406648D03*
X128431648Y-123866648D03*
X128431648Y-121326648D03*
X128431648Y-118786648D03*
%TD*%
D19*
%TO.C,R30*%
X110921648Y-122536648D03*
X110921648Y-112376648D03*
%TD*%
D40*
%TO.C,SW1*%
X45721648Y-130376746D03*
X40721648Y-130376746D03*
X45721648Y-133876746D03*
X40721648Y-133876746D03*
X45721648Y-137376747D03*
X40721648Y-137376747D03*
X45721648Y-140876747D03*
X40721648Y-140876747D03*
X45721648Y-144376748D03*
X40721648Y-144376748D03*
X45721648Y-147876749D03*
X40721648Y-147876749D03*
X45721648Y-151376749D03*
X40721648Y-151376749D03*
X45721648Y-154876750D03*
X40721648Y-154876750D03*
X45721648Y-158376751D03*
X40721648Y-158376751D03*
%TD*%
M02*
