%TF.GenerationSoftware,KiCad,Pcbnew,9.0.6*%
%TF.CreationDate,2026-01-23T10:54:34+00:00*%
%TF.ProjectId,Inverter,496e7665-7274-4657-922e-6b696361645f,rev?*%
%TF.SameCoordinates,Original*%
%TF.FileFunction,Profile,NP*%
%FSLAX46Y46*%
G04 Gerber Fmt 4.6, Leading zero omitted, Abs format (unit mm)*
G04 Created by KiCad (PCBNEW 9.0.6) date 2026-01-23 10:54:34*
%MOMM*%
%LPD*%
G01*
G04 APERTURE LIST*
%TA.AperFunction,Profile*%
%ADD10C,0.050000*%
%TD*%
%TA.AperFunction,Profile*%
%ADD11C,0.200000*%
%TD*%
G04 APERTURE END LIST*
D10*
X262841037Y-110950000D02*
X330591037Y-110950000D01*
X330591037Y-180725000D01*
X262841037Y-180725000D01*
X262841037Y-110950000D01*
D11*
X28021648Y-109581648D02*
X180327291Y-109581648D01*
X180327291Y-211605339D01*
X28021648Y-211605339D01*
X28021648Y-109581648D01*
X348501749Y-64000000D02*
X364851749Y-64000000D01*
X364851749Y-65000000D01*
X348501749Y-65000000D01*
X348501749Y-64000000D01*
X124136648Y-117486648D02*
X125136648Y-117486648D01*
X125136648Y-209436648D01*
X124136648Y-209436648D01*
X124136648Y-117486648D01*
X142200000Y-55550000D02*
X158600000Y-55550000D01*
X158600000Y-56550000D01*
X142200000Y-56550000D01*
X142200000Y-55550000D01*
X28400000Y-15700000D02*
X162400000Y-15700000D01*
X162400000Y-104375000D01*
X28400000Y-104375000D01*
X28400000Y-15700000D01*
D10*
X185937037Y-110771000D02*
X253687037Y-110771000D01*
X253687037Y-180546000D01*
X185937037Y-180546000D01*
X185937037Y-110771000D01*
D11*
X165000000Y-16100000D02*
X372125000Y-16100000D01*
X372125000Y-108150000D01*
X165000000Y-108150000D01*
X165000000Y-16100000D01*
X43150000Y-49300000D02*
X44150000Y-49300000D01*
X44150000Y-66200000D01*
X43150000Y-66200000D01*
X43150000Y-49300000D01*
X42600000Y-20400000D02*
X43600000Y-20400000D01*
X43600000Y-36800000D01*
X42600000Y-36800000D01*
X42600000Y-20400000D01*
X71000000Y-20750000D02*
X72000000Y-20750000D01*
X72000000Y-37150000D01*
X71000000Y-37150000D01*
X71000000Y-20750000D01*
X47600000Y-20400000D02*
X48600000Y-20400000D01*
X48600000Y-36800000D01*
X47600000Y-36800000D01*
X47600000Y-20400000D01*
X178900000Y-87600000D02*
X179900000Y-87600000D01*
X179900000Y-103950000D01*
X178900000Y-103950000D01*
X178900000Y-87600000D01*
X208875000Y-41049999D02*
X225275000Y-41049999D01*
X225275000Y-42049999D01*
X208875000Y-42049999D01*
X208875000Y-41049999D01*
X348451749Y-59000000D02*
X364851749Y-59000000D01*
X364851749Y-60000000D01*
X348451749Y-60000000D01*
X348451749Y-59000000D01*
X52600000Y-20400000D02*
X53600000Y-20400000D01*
X53600000Y-36800000D01*
X52600000Y-36800000D01*
X52600000Y-20400000D01*
X208875000Y-51049999D02*
X225275000Y-51049999D01*
X225275000Y-52049999D01*
X208875000Y-52049999D01*
X208875000Y-51049999D01*
X43700000Y-82950000D02*
X44700000Y-82950000D01*
X44700000Y-99350000D01*
X43700000Y-99350000D01*
X43700000Y-82950000D01*
%TO.C,Q10*%
X133963825Y-79186800D02*
X131763825Y-81386800D01*
X133963825Y-83586800D01*
X133963825Y-86276800D01*
X132463825Y-86276800D01*
X132463825Y-83576800D01*
X131163825Y-82286800D01*
X127863825Y-82286800D01*
X127863825Y-80486800D01*
X131163825Y-80486800D01*
X132463825Y-79146800D01*
X132463825Y-76486800D01*
X133963825Y-76486800D01*
X133963825Y-79186800D01*
%TO.C,Q4*%
X262704150Y-81298615D02*
X264004150Y-82588615D01*
X267304150Y-82588615D01*
X267304150Y-84388615D01*
X264004150Y-84388615D01*
X262704150Y-85728615D01*
X262704150Y-88388615D01*
X261204150Y-88388615D01*
X261204150Y-85688615D01*
X263404150Y-83488615D01*
X261204150Y-81288615D01*
X261204150Y-78598615D01*
X262704150Y-78598615D01*
X262704150Y-81298615D01*
%TO.C,Q9*%
X107563825Y-78990800D02*
X105363825Y-81190800D01*
X107563825Y-83390800D01*
X107563825Y-86080800D01*
X106063825Y-86080800D01*
X106063825Y-83380800D01*
X104763825Y-82090800D01*
X101463825Y-82090800D01*
X101463825Y-80290800D01*
X104763825Y-80290800D01*
X106063825Y-78950800D01*
X106063825Y-76290800D01*
X107563825Y-76290800D01*
X107563825Y-78990800D01*
%TO.C,Q5*%
X288904150Y-38218615D02*
X290204150Y-39508615D01*
X293504150Y-39508615D01*
X293504150Y-41308615D01*
X290204150Y-41308615D01*
X288904150Y-42648615D01*
X288904150Y-45308615D01*
X287404150Y-45308615D01*
X287404150Y-42608615D01*
X289604150Y-40408615D01*
X287404150Y-38208615D01*
X287404150Y-35518615D01*
X288904150Y-35518615D01*
X288904150Y-38218615D01*
%TO.C,Q8*%
X134063825Y-35590800D02*
X131863825Y-37790800D01*
X134063825Y-39990800D01*
X134063825Y-42680800D01*
X132563825Y-42680800D01*
X132563825Y-39980800D01*
X131263825Y-38690800D01*
X127963825Y-38690800D01*
X127963825Y-36890800D01*
X131263825Y-36890800D01*
X132563825Y-35550800D01*
X132563825Y-32890800D01*
X134063825Y-32890800D01*
X134063825Y-35590800D01*
%TO.C,Q6*%
X289004150Y-81398615D02*
X290304150Y-82688615D01*
X293604150Y-82688615D01*
X293604150Y-84488615D01*
X290304150Y-84488615D01*
X289004150Y-85828615D01*
X289004150Y-88488615D01*
X287504150Y-88488615D01*
X287504150Y-85788615D01*
X289704150Y-83588615D01*
X287504150Y-81388615D01*
X287504150Y-78698615D01*
X289004150Y-78698615D01*
X289004150Y-81398615D01*
%TO.C,Q3*%
X262704150Y-38118615D02*
X264004150Y-39408615D01*
X267304150Y-39408615D01*
X267304150Y-41208615D01*
X264004150Y-41208615D01*
X262704150Y-42548615D01*
X262704150Y-45208615D01*
X261204150Y-45208615D01*
X261204150Y-42508615D01*
X263404150Y-40308615D01*
X261204150Y-38108615D01*
X261204150Y-35418615D01*
X262704150Y-35418615D01*
X262704150Y-38118615D01*
%TO.C,Q7*%
X107763825Y-35494800D02*
X105563825Y-37694800D01*
X107763825Y-39894800D01*
X107763825Y-42584800D01*
X106263825Y-42584800D01*
X106263825Y-39884800D01*
X104963825Y-38594800D01*
X101663825Y-38594800D01*
X101663825Y-36794800D01*
X104963825Y-36794800D01*
X106263825Y-35454800D01*
X106263825Y-32794800D01*
X107763825Y-32794800D01*
X107763825Y-35494800D01*
%TO.C,Q2*%
X235704150Y-81298615D02*
X237004150Y-82588615D01*
X240304150Y-82588615D01*
X240304150Y-84388615D01*
X237004150Y-84388615D01*
X235704150Y-85728615D01*
X235704150Y-88388615D01*
X234204150Y-88388615D01*
X234204150Y-85688615D01*
X236404150Y-83488615D01*
X234204150Y-81288615D01*
X234204150Y-78598615D01*
X235704150Y-78598615D01*
X235704150Y-81298615D01*
%TO.C,Q17*%
X203141175Y-19882700D02*
X204441175Y-21172700D01*
X207741175Y-21172700D01*
X207741175Y-22972700D01*
X204441175Y-22972700D01*
X203141175Y-24312700D01*
X203141175Y-26972700D01*
X201641175Y-26972700D01*
X201641175Y-24272700D01*
X203841175Y-22072700D01*
X201641175Y-19872700D01*
X201641175Y-17182700D01*
X203141175Y-17182700D01*
X203141175Y-19882700D01*
%TO.C,Q1*%
X235704150Y-37998615D02*
X237004150Y-39288615D01*
X240304150Y-39288615D01*
X240304150Y-41088615D01*
X237004150Y-41088615D01*
X235704150Y-42428615D01*
X235704150Y-45088615D01*
X234204150Y-45088615D01*
X234204150Y-42388615D01*
X236404150Y-40188615D01*
X234204150Y-37988615D01*
X234204150Y-35298615D01*
X235704150Y-35298615D01*
X235704150Y-37998615D01*
%TD*%
M02*
