M48
; DRILL file {KiCad 9.0.6} date 2026-01-23T10:54:28+0000
; FORMAT={-:-/ absolute / metric / decimal}
; #@! TF.CreationDate,2026-01-23T10:54:28+00:00
; #@! TF.GenerationSoftware,Kicad,Pcbnew,9.0.6
; #@! TF.FileFunction,MixedPlating,1,2
FMAT,2
METRIC
; #@! TA.AperFunction,Plated,PTH,ViaDrill
T1C0.300
; #@! TA.AperFunction,Plated,PTH,ComponentDrill
T2C0.750
; #@! TA.AperFunction,Plated,PTH,ComponentDrill
T3C0.800
; #@! TA.AperFunction,Plated,PTH,ComponentDrill
T4C0.900
; #@! TA.AperFunction,Plated,PTH,ComponentDrill
T5C1.000
; #@! TA.AperFunction,Plated,PTH,ComponentDrill
T6C1.020
; #@! TA.AperFunction,Plated,PTH,ComponentDrill
T7C1.194
; #@! TA.AperFunction,Plated,PTH,ComponentDrill
T8C1.200
; #@! TA.AperFunction,Plated,PTH,ComponentDrill
T9C1.295
; #@! TA.AperFunction,Plated,PTH,ComponentDrill
T10C1.300
; #@! TA.AperFunction,Plated,PTH,ComponentDrill
T11C1.800
; #@! TA.AperFunction,Plated,PTH,ComponentDrill
T12C2.000
; #@! TA.AperFunction,NonPlated,NPTH,ComponentDrill
T13C2.500
; #@! TA.AperFunction,NonPlated,NPTH,ComponentDrill
T14C3.200
%
G90
G05
T1
X75.845Y-140.575
X78.382Y-167.457
X78.407Y-163.532
X80.807Y-143.557
X102.007Y-126.682
X102.782Y-145.132
X103.199Y-203.214
X103.282Y-190.907
X104.007Y-157.102
X104.974Y-171.014
X108.124Y-174.164
X108.172Y-157.007
X108.212Y-208.227
X108.222Y-126.587
X108.222Y-145.037
X108.222Y-190.987
X115.55Y-46.7
X115.55Y-47.8
X115.55Y-48.9
X115.55Y-50.0
X115.55Y-51.1
X115.55Y-52.2
X115.55Y-53.3
X115.55Y-54.4
X115.55Y-55.5
X115.55Y-56.6
X115.55Y-57.7
X115.55Y-58.8
X116.65Y-46.7
X116.65Y-47.8
X116.65Y-48.9
X116.65Y-50.0
X116.65Y-51.1
X116.65Y-52.2
X116.65Y-53.3
X116.65Y-54.4
X116.65Y-55.5
X116.65Y-56.6
X116.65Y-57.7
X116.65Y-58.8
X132.15Y-47.9
X132.15Y-49.0
X132.15Y-50.1
X132.15Y-51.2
X132.15Y-52.3
X132.15Y-53.4
X132.15Y-54.5
X132.15Y-55.6
X132.15Y-56.7
X132.15Y-57.8
X132.15Y-58.9
X133.25Y-47.9
X133.25Y-49.0
X133.25Y-50.1
X133.25Y-51.2
X133.25Y-52.3
X133.25Y-53.4
X133.25Y-54.5
X133.25Y-55.6
X133.25Y-56.7
X133.25Y-57.8
X133.25Y-58.9
X185.325Y-42.8
X185.325Y-43.9
X185.325Y-45.0
X185.325Y-46.1
X185.325Y-47.2
X185.325Y-48.3
X185.325Y-49.4
X185.325Y-50.5
X186.425Y-42.8
X186.425Y-43.9
X186.425Y-45.0
X186.425Y-46.1
X186.425Y-47.2
X186.425Y-48.3
X186.425Y-49.4
X186.425Y-50.5
X197.921Y-130.921
X207.026Y-126.376
X211.876Y-121.526
X218.472Y-131.095
X239.671Y-144.896
X249.171Y-144.896
X257.825Y-49.2
X257.825Y-50.3
X257.825Y-51.4
X257.825Y-52.5
X257.825Y-53.6
X258.925Y-49.2
X258.925Y-50.3
X258.925Y-51.4
X258.925Y-52.5
X258.925Y-53.6
X274.825Y-131.1
X279.175Y-59.8
X279.175Y-60.9
X279.175Y-62.0
X279.175Y-63.1
X279.175Y-64.2
X279.466Y-165.816
X280.275Y-59.8
X280.275Y-60.9
X280.275Y-62.0
X280.275Y-63.1
X280.275Y-64.2
X283.93Y-126.555
X288.78Y-121.705
X294.44Y-165.872
X295.376Y-131.274
X298.525Y-59.7
X298.525Y-60.8
X298.525Y-61.9
X298.525Y-63.0
X298.525Y-64.1
X299.625Y-59.7
X299.625Y-60.8
X299.625Y-61.9
X299.625Y-63.0
X299.625Y-64.1
X307.15Y-49.1
X307.15Y-50.2
X307.15Y-51.3
X307.15Y-52.4
X307.15Y-53.5
X308.25Y-49.1
X308.25Y-50.2
X308.25Y-51.3
X308.25Y-52.4
X308.25Y-53.5
X316.575Y-145.075
X326.075Y-145.075
T2
X96.725Y-32.67
X96.725Y-42.83
X96.725Y-76.194
X96.725Y-86.354
X122.9Y-76.29
X122.9Y-86.45
X123.05Y-32.79
X123.05Y-42.95
X216.585Y-17.547
X216.585Y-27.707
X245.044Y-78.307
X245.044Y-88.467
X245.119Y-34.982
X245.119Y-45.142
X272.094Y-35.132
X272.094Y-45.292
X272.094Y-78.307
X272.094Y-88.467
X298.219Y-35.232
X298.219Y-45.392
X298.394Y-78.432
X298.394Y-88.592
T3
X29.857Y-160.357
X29.857Y-162.897
X29.857Y-165.437
X30.182Y-124.442
X30.182Y-126.982
X30.182Y-129.522
X30.207Y-142.242
X30.207Y-144.782
X30.207Y-147.322
X52.442Y-178.762
X52.442Y-186.382
X52.542Y-136.762
X52.542Y-144.382
X52.817Y-157.782
X52.817Y-165.402
X54.982Y-178.762
X54.982Y-186.382
X55.082Y-136.762
X55.082Y-144.382
X55.357Y-157.782
X55.357Y-165.402
X57.522Y-178.762
X57.522Y-186.382
X57.622Y-136.762
X57.622Y-144.382
X57.897Y-157.782
X57.897Y-165.402
X60.062Y-178.762
X60.062Y-186.382
X60.162Y-136.762
X60.162Y-144.382
X60.167Y-189.182
X60.262Y-147.262
X60.437Y-157.782
X60.437Y-165.402
X60.437Y-168.282
X62.602Y-178.762
X62.602Y-186.382
X62.617Y-174.482
X62.667Y-189.182
X62.702Y-136.762
X62.702Y-144.382
X62.722Y-132.682
X62.762Y-147.262
X62.937Y-168.282
X62.977Y-157.782
X62.977Y-165.402
X63.037Y-153.582
X65.117Y-189.382
X65.142Y-178.762
X65.142Y-186.382
X65.242Y-136.762
X65.242Y-144.382
X65.302Y-147.562
X65.457Y-168.482
X65.517Y-157.782
X65.517Y-165.402
X67.617Y-174.482
X67.682Y-178.762
X67.682Y-186.382
X67.722Y-132.682
X67.782Y-136.762
X67.782Y-144.382
X68.037Y-153.582
X68.057Y-157.782
X68.057Y-165.402
X70.222Y-178.762
X70.222Y-186.382
X70.322Y-136.762
X70.322Y-144.382
X70.597Y-157.782
X70.597Y-165.402
X73.102Y-140.982
X73.122Y-125.432
X74.222Y-181.357
X74.222Y-196.957
X75.277Y-189.382
X75.462Y-147.562
X75.617Y-168.482
X76.907Y-128.157
X76.907Y-138.317
X78.067Y-184.082
X78.067Y-194.242
X78.232Y-121.357
X79.382Y-177.257
X80.022Y-128.122
X80.022Y-138.282
X80.252Y-168.512
X80.262Y-153.012
X81.182Y-184.057
X81.182Y-194.217
X83.232Y-121.357
X83.262Y-128.122
X83.262Y-138.282
X83.262Y-140.982
X83.282Y-125.432
X84.057Y-155.702
X84.057Y-165.862
X84.382Y-177.257
X84.382Y-181.357
X84.382Y-184.057
X84.382Y-194.217
X84.382Y-196.957
X85.457Y-148.982
X86.282Y-141.282
X86.442Y-129.462
X86.442Y-137.082
X87.222Y-155.702
X87.222Y-165.862
X87.357Y-121.082
X87.357Y-126.082
X87.762Y-185.237
X87.762Y-192.857
X87.857Y-196.932
X88.667Y-177.107
X88.667Y-182.107
X88.982Y-129.462
X88.982Y-137.082
X90.302Y-185.237
X90.302Y-192.857
X90.412Y-168.512
X90.422Y-153.012
X90.422Y-155.702
X90.422Y-165.862
X90.457Y-148.982
X91.282Y-141.282
X91.522Y-129.462
X91.522Y-137.082
X92.842Y-185.237
X92.842Y-192.857
X92.857Y-196.932
X93.175Y-35.2
X93.175Y-40.2
X93.175Y-78.774
X93.175Y-83.774
X93.532Y-168.757
X93.602Y-157.102
X93.602Y-164.722
X94.062Y-129.462
X94.062Y-137.082
X94.507Y-148.932
X94.507Y-153.932
X95.382Y-185.237
X95.382Y-192.857
X96.142Y-157.102
X96.142Y-164.722
X98.532Y-168.757
X98.562Y-130.782
X98.562Y-135.782
X98.682Y-157.102
X98.682Y-164.722
X99.882Y-186.537
X99.882Y-191.537
X101.222Y-157.102
X101.222Y-164.722
X105.722Y-158.402
X105.722Y-163.402
X110.922Y-112.377
X110.922Y-122.537
X111.022Y-143.777
X111.022Y-153.937
X111.022Y-161.152
X111.022Y-171.312
X111.022Y-194.502
X111.022Y-204.662
X111.047Y-130.427
X111.047Y-140.587
X111.047Y-176.877
X111.047Y-187.037
X119.35Y-78.87
X119.35Y-83.87
X119.5Y-35.37
X119.5Y-40.37
X120.712Y-150.167
X120.712Y-152.707
X120.712Y-155.247
X120.712Y-157.787
X120.712Y-167.587
X120.712Y-170.127
X120.712Y-172.667
X120.712Y-175.207
X120.812Y-118.787
X120.812Y-121.327
X120.812Y-123.867
X120.812Y-126.407
X120.812Y-136.787
X120.812Y-139.327
X120.812Y-141.867
X120.812Y-144.407
X120.867Y-183.247
X120.867Y-185.787
X120.867Y-188.327
X120.867Y-190.867
X120.867Y-200.647
X120.867Y-203.187
X120.867Y-205.727
X120.867Y-208.267
X128.332Y-150.167
X128.332Y-152.707
X128.332Y-155.247
X128.332Y-157.787
X128.332Y-167.587
X128.332Y-170.127
X128.332Y-172.667
X128.332Y-175.207
X128.432Y-118.787
X128.432Y-121.327
X128.432Y-123.867
X128.432Y-126.407
X128.432Y-136.787
X128.432Y-139.327
X128.432Y-141.867
X128.432Y-144.407
X128.487Y-183.247
X128.487Y-185.787
X128.487Y-188.327
X128.487Y-190.867
X128.487Y-200.647
X128.487Y-203.187
X128.487Y-205.727
X128.487Y-208.267
X130.947Y-158.087
X130.952Y-172.687
X130.972Y-155.187
X130.972Y-175.787
X131.077Y-190.867
X131.082Y-167.587
X131.087Y-200.647
X131.127Y-187.967
X131.127Y-203.567
X131.127Y-206.667
X131.177Y-141.187
X131.177Y-144.387
X131.187Y-136.587
X131.277Y-123.887
X131.287Y-126.787
X133.447Y-158.087
X133.577Y-190.867
X133.582Y-167.587
X133.587Y-200.647
X133.687Y-136.587
X133.787Y-126.787
X136.772Y-158.287
X137.807Y-190.967
X138.377Y-127.087
X141.112Y-172.687
X141.132Y-155.187
X141.132Y-175.787
X141.287Y-187.967
X141.287Y-203.567
X141.287Y-206.667
X141.337Y-141.187
X141.337Y-144.387
X141.437Y-123.887
X146.932Y-158.287
X147.967Y-190.967
X148.537Y-127.087
X158.577Y-118.082
X158.577Y-123.027
X158.592Y-129.237
X158.592Y-135.337
X161.117Y-123.027
X161.132Y-129.237
X161.132Y-135.337
X163.657Y-123.027
X163.672Y-129.237
X163.672Y-135.337
X165.837Y-124.227
X165.837Y-127.332
X165.847Y-121.132
X165.847Y-130.432
X165.857Y-133.537
X165.857Y-136.592
X168.737Y-118.082
X175.997Y-124.227
X175.997Y-127.332
X176.007Y-121.132
X176.007Y-130.432
X176.017Y-133.537
X176.017Y-136.592
X188.946Y-134.946
X188.946Y-139.946
X192.596Y-143.196
X192.611Y-129.216
X193.001Y-132.346
X193.001Y-134.886
X193.001Y-137.426
X193.001Y-139.966
X193.071Y-160.046
X193.071Y-170.206
X194.021Y-124.941
X196.496Y-146.471
X196.496Y-151.471
X196.496Y-160.071
X196.521Y-154.721
X196.561Y-124.941
X199.016Y-165.696
X199.036Y-160.071
X199.101Y-124.941
X200.621Y-132.346
X200.621Y-134.886
X200.621Y-137.426
X200.621Y-139.966
X201.016Y-165.696
X201.296Y-148.921
X201.576Y-160.071
X202.756Y-143.196
X202.771Y-129.216
X203.796Y-148.921
X204.671Y-134.996
X204.671Y-139.996
X206.681Y-154.721
X209.071Y-160.021
X209.071Y-170.181
X209.671Y-134.966
X209.671Y-139.966
X212.466Y-160.096
X212.521Y-146.496
X212.521Y-151.496
X212.521Y-154.771
X213.321Y-143.196
X213.336Y-129.216
X213.726Y-132.346
X213.726Y-134.886
X213.726Y-137.426
X213.726Y-139.966
X214.746Y-124.941
X214.816Y-116.046
X214.971Y-165.721
X215.006Y-160.096
X216.971Y-165.721
X217.271Y-148.896
X217.286Y-124.941
X217.356Y-116.046
X217.546Y-160.096
X219.771Y-148.896
X219.826Y-124.941
X219.896Y-116.046
X220.135Y-20.127
X220.135Y-25.127
X221.346Y-132.346
X221.346Y-134.886
X221.346Y-137.426
X221.346Y-139.966
X222.681Y-154.771
X223.481Y-143.196
X223.496Y-129.216
X224.121Y-160.071
X224.121Y-170.231
X225.396Y-134.996
X225.396Y-139.996
X227.521Y-160.071
X227.536Y-154.746
X227.546Y-146.571
X227.546Y-151.571
X230.021Y-165.696
X230.061Y-160.071
X230.446Y-134.941
X230.446Y-139.941
X232.021Y-165.696
X232.601Y-160.071
X232.626Y-148.921
X234.096Y-143.171
X234.111Y-129.191
X234.501Y-132.321
X234.501Y-134.861
X234.501Y-137.401
X234.501Y-139.941
X235.126Y-148.921
X235.521Y-124.916
X236.407Y-158.746
X236.407Y-164.746
X236.407Y-170.236
X237.516Y-151.671
X237.696Y-154.746
X238.061Y-124.916
X240.601Y-124.916
X242.121Y-132.321
X242.121Y-134.861
X242.121Y-137.401
X242.121Y-139.941
X244.256Y-143.171
X244.271Y-129.191
X246.171Y-134.971
X246.171Y-139.971
X246.567Y-158.746
X246.567Y-164.746
X246.567Y-170.236
X247.676Y-151.671
X248.594Y-80.887
X248.594Y-85.887
X248.669Y-37.562
X248.669Y-42.562
X250.972Y-159.736
X250.972Y-162.276
X250.972Y-164.816
X250.997Y-141.561
X250.997Y-144.101
X250.997Y-146.641
X251.022Y-123.781
X251.022Y-126.321
X251.022Y-128.861
X265.825Y-135.125
X265.825Y-140.125
X266.525Y-160.222
X269.045Y-165.847
X269.065Y-160.222
X269.5Y-143.375
X269.515Y-129.395
X269.905Y-132.525
X269.905Y-135.065
X269.905Y-137.605
X269.905Y-140.145
X270.925Y-125.12
X271.045Y-165.847
X271.605Y-160.222
X273.465Y-125.12
X275.644Y-37.712
X275.644Y-42.712
X275.644Y-80.887
X275.644Y-85.887
X276.005Y-125.12
X276.3Y-160.12
X276.3Y-170.28
X277.525Y-132.525
X277.525Y-135.065
X277.525Y-137.605
X277.525Y-140.145
X278.2Y-149.1
X279.6Y-160.075
X279.6Y-170.235
X279.66Y-143.375
X279.675Y-129.395
X280.7Y-149.1
X281.575Y-135.175
X281.575Y-140.175
X282.495Y-160.247
X285.0Y-165.872
X285.035Y-160.247
X286.65Y-135.175
X286.65Y-140.175
X287.0Y-165.872
X287.575Y-160.247
X290.225Y-143.375
X290.24Y-129.395
X290.63Y-132.525
X290.63Y-135.065
X290.63Y-137.605
X290.63Y-140.145
X291.2Y-160.195
X291.2Y-170.355
X291.65Y-125.12
X291.72Y-116.225
X294.175Y-149.075
X294.19Y-125.12
X294.26Y-116.225
X294.525Y-160.165
X294.525Y-170.325
X296.675Y-149.075
X296.73Y-125.12
X296.8Y-116.225
X297.55Y-160.222
X298.25Y-132.525
X298.25Y-135.065
X298.25Y-137.605
X298.25Y-140.145
X300.05Y-165.847
X300.09Y-160.222
X300.385Y-143.375
X300.4Y-129.395
X301.769Y-37.812
X301.769Y-42.812
X301.944Y-81.012
X301.944Y-86.012
X302.05Y-165.847
X302.325Y-135.175
X302.325Y-140.175
X302.63Y-160.222
X306.3Y-160.295
X306.3Y-170.455
X307.35Y-135.125
X307.35Y-140.125
X309.53Y-149.1
X309.625Y-160.29
X309.625Y-170.45
X311.0Y-143.35
X311.015Y-129.37
X311.405Y-132.5
X311.405Y-135.04
X311.405Y-137.58
X311.405Y-140.12
X312.03Y-149.1
X312.425Y-125.095
X313.311Y-158.925
X313.311Y-164.925
X313.311Y-170.415
X314.965Y-125.095
X317.505Y-125.095
X319.025Y-132.5
X319.025Y-135.04
X319.025Y-137.58
X319.025Y-140.12
X321.16Y-143.35
X321.175Y-129.37
X323.1Y-135.15
X323.1Y-140.15
X323.471Y-158.925
X323.471Y-164.925
X323.471Y-170.415
X327.876Y-159.915
X327.876Y-162.455
X327.876Y-164.995
X327.901Y-141.74
X327.901Y-144.28
X327.901Y-146.82
X327.926Y-123.96
X327.926Y-126.5
X327.926Y-129.04
T4
X114.582Y-151.812
X114.657Y-138.437
X114.657Y-169.237
X114.657Y-202.362
X114.682Y-120.437
X114.757Y-184.937
X117.122Y-151.812
X117.197Y-138.437
X117.197Y-169.237
X117.197Y-202.362
X117.222Y-120.437
X117.297Y-184.937
T5
X38.957Y-188.757
X38.957Y-191.257
X70.407Y-112.474
X72.947Y-112.474
X80.567Y-112.474
X85.647Y-112.474
X118.172Y-160.587
X118.297Y-110.987
X118.297Y-129.487
X118.337Y-193.684
X120.712Y-160.587
X120.837Y-110.987
X120.837Y-129.487
X120.877Y-193.684
X128.332Y-160.587
X128.457Y-110.987
X128.457Y-129.487
X128.497Y-193.684
X133.412Y-160.587
X133.537Y-110.987
X133.537Y-129.487
X133.577Y-193.684
T6
X39.007Y-196.627
X39.007Y-199.167
X39.007Y-201.707
T7
X39.9Y-52.4
X39.9Y-63.1
X47.4Y-52.4
X47.4Y-63.1
T8
X40.722Y-130.377
X40.722Y-133.877
X40.722Y-137.377
X40.722Y-140.877
X40.722Y-144.377
X40.722Y-147.877
X40.722Y-151.377
X40.722Y-154.877
X40.722Y-158.377
X45.722Y-130.377
X45.722Y-133.877
X45.722Y-137.377
X45.722Y-140.877
X45.722Y-144.377
X45.722Y-147.877
X45.722Y-151.377
X45.722Y-154.877
X45.722Y-158.377
X103.6Y-78.67
X103.6Y-83.75
X103.8Y-35.174
X103.8Y-40.254
X108.68Y-81.213
X108.88Y-37.718
X130.0Y-78.866
X130.0Y-83.946
X130.1Y-35.27
X130.1Y-40.35
X135.08Y-81.409
X135.18Y-37.813
X178.89Y-23.275
X189.05Y-23.275
X200.525Y-22.05
X205.605Y-19.514
X205.605Y-24.593
X212.725Y-76.475
X212.725Y-103.975
X233.088Y-40.166
X233.088Y-83.466
X238.168Y-37.629
X238.168Y-42.709
X238.168Y-80.929
X238.168Y-86.009
X260.088Y-40.286
X260.088Y-83.466
X265.168Y-37.749
X265.168Y-42.829
X265.168Y-80.929
X265.168Y-86.009
X286.288Y-40.386
X286.388Y-83.566
X291.368Y-37.849
X291.368Y-42.929
X291.468Y-81.029
X291.468Y-86.109
T9
X59.575Y-42.15
X59.575Y-87.15
X67.575Y-87.15
X80.375Y-42.15
T10
X40.6Y-25.15
X40.6Y-33.35
X41.7Y-86.4
X41.7Y-94.6
X41.832Y-113.757
X41.832Y-121.957
X45.6Y-25.15
X45.6Y-33.35
X46.7Y-86.4
X46.7Y-94.6
X46.832Y-113.757
X46.832Y-121.957
X50.6Y-25.15
X50.6Y-33.35
X55.6Y-25.15
X55.6Y-33.35
X56.107Y-113.607
X56.107Y-121.807
X61.107Y-113.607
X61.107Y-121.807
X64.8Y-95.925
X64.8Y-100.925
X68.996Y-25.5
X68.996Y-33.7
X73.0Y-95.925
X73.0Y-100.925
X73.996Y-25.5
X73.996Y-33.7
X145.5Y-68.805
X145.5Y-73.805
X145.5Y-78.805
X145.5Y-83.805
X145.5Y-88.8
X145.5Y-93.8
X145.5Y-98.8
X145.6Y-53.55
X145.6Y-58.55
X153.7Y-68.805
X153.7Y-73.805
X153.7Y-78.805
X153.7Y-83.805
X153.7Y-88.8
X153.7Y-93.8
X153.7Y-98.8
X153.8Y-53.55
X153.8Y-58.55
X160.987Y-182.892
X160.987Y-147.901
X160.987Y-152.901
X160.987Y-157.901
X160.987Y-162.901
X160.987Y-187.887
X160.987Y-192.887
X160.987Y-197.887
X160.987Y-167.896
X160.987Y-172.896
X160.987Y-177.896
X169.187Y-182.892
X169.187Y-147.901
X169.187Y-152.901
X169.187Y-157.901
X169.187Y-162.901
X169.187Y-187.887
X169.187Y-192.887
X169.187Y-197.887
X169.187Y-167.896
X169.187Y-172.896
X169.187Y-177.896
X176.9Y-91.05
X176.9Y-99.25
X181.9Y-91.05
X181.9Y-99.25
X213.625Y-38.975
X213.625Y-43.975
X213.625Y-48.975
X213.625Y-53.975
X221.825Y-38.975
X221.825Y-43.975
X221.825Y-48.975
X221.825Y-53.975
X314.939Y-91.1
X314.939Y-99.3
X319.939Y-91.1
X319.939Y-99.3
X324.939Y-91.1
X324.939Y-99.3
X329.934Y-91.1
X329.934Y-99.3
X334.93Y-91.1
X334.93Y-99.3
X339.93Y-91.1
X339.93Y-99.3
X344.93Y-91.1
X344.93Y-99.3
X349.925Y-91.1
X349.925Y-99.3
X351.925Y-57.0
X351.925Y-62.0
X351.925Y-67.0
X354.925Y-91.1
X354.925Y-99.3
X359.925Y-91.1
X359.925Y-99.3
X360.125Y-57.0
X360.125Y-62.0
X360.125Y-67.0
X364.925Y-91.1
X364.925Y-99.3
T11
X315.075Y-41.9
X315.075Y-61.9
X315.075Y-81.9
X340.075Y-41.9
X340.075Y-61.9
X340.075Y-81.9
T12
X183.1Y-63.825
X193.1Y-63.825
T13
X99.1Y-25.074
X99.1Y-50.474
X99.1Y-68.574
X99.1Y-93.974
X125.4Y-25.17
X125.4Y-50.57
X125.4Y-68.67
X125.4Y-94.07
X242.741Y-27.429
X242.741Y-52.829
X242.741Y-70.729
X242.741Y-96.129
X269.791Y-27.469
X269.791Y-52.869
X269.791Y-70.769
X269.791Y-96.169
X296.091Y-27.569
X296.091Y-52.969
X296.091Y-70.869
X296.091Y-96.269
T14
X3.475Y-3.475
X3.475Y-11.425
X31.622Y-113.282
X31.622Y-208.082
X31.95Y-19.15
X32.075Y-100.725
X158.85Y-19.35
X168.65Y-104.6
X168.666Y-19.719
X176.687Y-207.887
X176.887Y-113.087
X189.321Y-114.396
X189.571Y-176.946
X249.987Y-114.346
X249.987Y-176.546
X266.225Y-114.575
X266.425Y-177.15
X326.891Y-114.525
X326.891Y-176.725
X368.241Y-19.819
M30
